<svg width="18" height="18" viewBox="0 0 18 18" fill="none" xmlns="http://www.w3.org/2000/svg">
<g opacity="0.8">
<path d="M15.714 7.09851L9.74936 1.13388C9.13276 0.51724 8.12933 0.517205 7.51265 1.13388C6.95831 1.68819 6.91057 2.53359 7.31993 3.13725L7.31163 3.17877C6.8816 5.3291 5.83468 7.28533 4.28398 8.836L1.54816 11.5718C0.930044 12.19 0.929939 13.1904 1.54816 13.8085L3.03927 15.2996C3.65736 15.9178 4.65783 15.9178 5.27598 15.2996L5.64878 14.9268L8.25828 17.5363C8.8764 18.1545 9.8768 18.1545 10.495 17.5363C11.1116 16.9197 11.1116 15.9163 10.495 15.2997L9.3766 14.1813L9.74939 13.8085C10.3675 13.1904 10.3676 12.19 9.74939 11.5719L9.49606 11.3185C10.7423 10.4459 12.1577 9.83848 13.6691 9.53617L13.7112 9.52777C14.3283 9.9444 15.1717 9.87743 15.714 9.33515H15.714C16.3306 8.71854 16.3306 7.71519 15.714 7.09851ZM4.53042 14.5541C4.32441 14.7601 3.99085 14.7601 3.78483 14.554L2.29372 13.0629C2.08767 12.8568 2.08767 12.5234 2.29372 12.3174L4.90318 9.70787L7.13989 11.9446C6.88459 12.1999 4.79202 14.2925 4.53042 14.5541ZM9.74936 16.0452C9.95488 16.2507 9.95488 16.5852 9.74936 16.7908C9.54384 16.9963 9.20933 16.9963 9.0038 16.7908L6.3943 14.1813L7.13989 13.4357L9.74936 16.0452ZM7.88545 12.6901C8.04393 12.5317 8.28117 12.2889 8.65558 11.9691L9.0038 12.3174C9.20985 12.5234 9.20985 12.8568 9.0038 13.0629L8.63101 13.4357L7.88545 12.6901ZM7.90784 11.2215L5.62628 8.93989C6.84897 7.52805 7.72457 5.86147 8.19303 4.05093L12.7968 8.6547C10.9863 9.12312 9.31972 9.99872 7.90784 11.2215ZM14.9683 8.58956C14.7623 8.79557 14.4288 8.79557 14.2228 8.58956L8.25821 2.62499C8.05216 2.41891 8.05216 2.08549 8.25821 1.87944C8.46426 1.67339 8.79775 1.67339 9.0038 1.87944L14.9683 7.84396C15.1739 8.04952 15.1739 8.38396 14.9683 8.58956Z" fill="currentColor"/>
<path d="M5.27595 11.5719C5.07011 11.366 4.73627 11.366 4.5304 11.5719L3.78484 12.3174C3.57896 12.5233 3.57896 12.8571 3.78484 13.063C3.99068 13.2689 4.32456 13.2689 4.5304 13.063L5.27595 12.3174C5.48183 12.1116 5.48183 11.7778 5.27595 11.5719Z" fill="currentColor"/>
<path d="M12.1707 0C11.8796 0 11.6435 0.236039 11.6435 0.527202V1.58161C11.6435 1.87277 11.8796 2.10881 12.1707 2.10881C12.4619 2.10881 12.6979 1.87277 12.6979 1.58161V0.527202C12.6979 0.236039 12.4619 0 12.1707 0Z" fill="currentColor"/>
<path d="M16.3883 4.21777H15.3339C15.0427 4.21777 14.8067 4.45381 14.8067 4.74498C14.8067 5.03614 15.0427 5.27218 15.3339 5.27218H16.3883C16.6795 5.27218 16.9155 5.03614 16.9155 4.74498C16.9155 4.45381 16.6794 4.21777 16.3883 4.21777Z" fill="currentColor"/>
<path d="M15.7067 1.20861C15.5008 1.00273 15.167 1.00273 14.9611 1.20861L13.9067 2.26301C13.7009 2.46888 13.7009 2.80269 13.9067 3.00857C14.1126 3.21444 14.4464 3.21448 14.6523 3.00857L15.7067 1.95416C15.9126 1.74829 15.9126 1.41451 15.7067 1.20861Z" fill="currentColor"/>
</g>
</svg>
