<svg width="18" height="18" viewBox="0 0 18 18" fill="none" xmlns="http://www.w3.org/2000/svg">
<g opacity="0.8" clip-path="url(#clip0_581_4760)">
<path d="M17.8164 8.53695L13.6538 4.12693C13.398 3.85559 12.971 3.84321 12.6996 4.09926C12.4287 4.35509 12.4161 4.78235 12.6722 5.05347L16.3975 9L12.6722 12.947C12.4161 13.2181 12.4287 13.6452 12.6996 13.9012C12.8301 14.0243 12.9968 14.0852 13.1629 14.0852C13.3423 14.0852 13.5213 14.0142 13.6539 13.8739L17.8164 9.46371C18.0618 9.20341 18.0618 8.79704 17.8164 8.53695Z" fill="currentColor"/>
<path d="M5.32854 12.9468L1.60343 9.00005L5.32854 5.05332C5.58437 4.78219 5.57199 4.3549 5.30087 4.0991C5.02995 3.84327 4.60245 3.85564 4.34665 4.12677L0.184127 8.53679C-0.0613351 8.79688 -0.0613351 9.20347 0.184127 9.46359L4.34686 13.8738C4.47961 14.0145 4.65849 14.0853 4.83782 14.0853C5.00387 14.0853 5.17061 14.0241 5.30087 13.901C5.57224 13.6452 5.58437 13.2179 5.32854 12.9468Z" fill="currentColor"/>
<path d="M10.0922 1.85195C9.72391 1.79616 9.3792 2.04904 9.32295 2.41737L7.34294 15.3774C7.28669 15.746 7.53981 16.0905 7.90836 16.1467C7.94302 16.1519 7.97719 16.1544 8.01119 16.1544C8.33902 16.1544 8.62657 15.9152 8.67765 15.5813L10.6577 2.62124C10.7139 2.25266 10.4608 1.9082 10.0922 1.85195Z" fill="currentColor"/>
</g>
<defs>
<clipPath id="clip0_581_4760">
<rect width="18" height="18" fill="white"/>
</clipPath>
</defs>
</svg>
