<svg width="18" height="18" viewBox="0 0 18 18" fill="none" xmlns="http://www.w3.org/2000/svg">
<g opacity="0.8" clip-path="url(#clip0_533_651)">
<path d="M17.4727 0H15.3633C15.072 0 14.8359 0.236109 14.8359 0.527344V1.05469H10.4913C10.2736 0.44093 9.68748 0 9 0C8.31252 0 7.72636 0.44093 7.50867 1.05469H3.16406V0.527344C3.16406 0.236109 2.92795 0 2.63672 0H0.527344C0.236109 0 0 0.236109 0 0.527344V2.63672C0 2.92795 0.236109 3.16406 0.527344 3.16406H2.63672C2.92795 3.16406 3.16406 2.92795 3.16406 2.63672V2.10234H5.357C3.45449 3.30729 2.29799 5.34287 2.15887 7.50382C1.53766 7.71743 1.08984 8.30721 1.08984 9C1.08984 9.87233 1.79954 10.582 2.67188 10.582C3.54421 10.582 4.25391 9.87233 4.25391 9C4.25391 8.31867 3.82096 7.73656 3.21574 7.5143C3.40298 5.03061 5.19145 2.89146 7.58306 2.28452C7.8423 2.80526 8.37988 3.16406 9 3.16406C9.62012 3.16406 10.1577 2.80526 10.4169 2.28456C12.8086 2.8915 14.597 5.03065 14.7843 7.51433C14.179 7.73655 13.7461 8.31867 13.7461 9C13.7461 9.87233 14.4558 10.582 15.3281 10.582C16.2005 10.582 16.9102 9.87233 16.9102 9C16.9102 8.30721 16.4623 7.71743 15.8411 7.50382C15.7017 5.33855 14.5418 3.31196 12.643 2.10938H14.8359V2.63672C14.8359 2.92795 15.072 3.16406 15.3633 3.16406H17.4727C17.7639 3.16406 18 2.92795 18 2.63672V0.527344C18 0.236109 17.7639 0 17.4727 0ZM2.10938 2.10938H1.05469V1.05469H2.10938V2.10938ZM2.67188 9.52734C2.3811 9.52734 2.14453 9.29078 2.14453 9C2.14453 8.70922 2.3811 8.47266 2.67188 8.47266C2.96265 8.47266 3.19922 8.70922 3.19922 9C3.19922 9.29078 2.96265 9.52734 2.67188 9.52734ZM9 2.10938C8.70922 2.10938 8.47266 1.87281 8.47266 1.58203C8.47266 1.29125 8.70922 1.05469 9 1.05469C9.29078 1.05469 9.52734 1.29125 9.52734 1.58203C9.52734 1.87281 9.29078 2.10938 9 2.10938ZM15.3281 8.47266C15.6189 8.47266 15.8555 8.70922 15.8555 9C15.8555 9.29078 15.6189 9.52734 15.3281 9.52734C15.0373 9.52734 14.8008 9.29078 14.8008 9C14.8008 8.70922 15.0373 8.47266 15.3281 8.47266ZM16.9453 2.10938H15.8906V1.05469H16.9453V2.10938Z" fill="currentColor"/>
<path d="M13.6575 10.8165L9.43875 4.48839C9.43861 4.48818 9.43843 4.48796 9.43829 4.48772C9.43678 4.48547 9.43513 4.48332 9.43358 4.48111C9.42634 4.4706 9.41871 4.46047 9.41076 4.45059C9.18854 4.17448 8.7654 4.19311 8.56641 4.48111C8.56487 4.48332 8.56322 4.48547 8.5617 4.48772C8.56156 4.48796 8.56139 4.48814 8.56125 4.48839L4.3425 10.8165C4.20303 11.0257 4.23063 11.3042 4.40838 11.4819C5.4605 12.534 6.13016 13.9093 6.31258 15.3808C6.2307 15.447 6.15164 15.5179 6.07668 15.5946C5.58137 16.1012 5.30859 16.7681 5.30859 17.4723C5.30859 17.7635 5.5447 17.9996 5.83593 17.9996H12.1641C12.4553 17.9996 12.6914 17.7635 12.6914 17.4723C12.6914 16.7681 12.4186 16.1012 11.9233 15.5945C11.8484 15.5178 11.7693 15.4469 11.6874 15.3807C11.8698 13.9092 12.5395 12.5339 13.5916 11.4819C13.7694 11.3042 13.797 11.0256 13.6575 10.8165ZM9 10.5817C9.29077 10.5817 9.52734 10.8182 9.52734 11.109C9.52734 11.3998 9.29077 11.6364 9 11.6364C8.70922 11.6364 8.47265 11.3998 8.47265 11.109C8.47265 10.8182 8.70922 10.5817 9 10.5817ZM6.45321 16.9449C6.67262 16.318 7.26739 15.8551 7.94531 15.8551H10.0547C10.7326 15.8551 11.3274 16.318 11.5468 16.9449H6.45321ZM10.6961 14.8807C10.4887 14.8277 10.2737 14.8004 10.0547 14.8004H7.94531C7.72632 14.8004 7.51131 14.8277 7.30388 14.8807C7.05709 13.4594 6.41615 12.1308 5.45291 11.0522L8.47265 6.5226V9.61772C7.85886 9.83541 7.41797 10.4216 7.41797 11.109C7.41797 11.9814 8.12766 12.6911 9 12.6911C9.87233 12.6911 10.582 11.9814 10.582 11.109C10.582 10.4216 10.1411 9.83541 9.52734 9.61772V6.5226L12.5471 11.0522C11.5838 12.1307 10.9429 13.4593 10.6961 14.8807Z" fill="currentColor"/>
</g>
<defs>
<clipPath id="clip0_533_651">
<rect width="18" height="18" fill="white"/>
</clipPath>
</defs>
</svg>
