<svg width="22" height="22" viewBox="0 0 22 22" fill="none" xmlns="http://www.w3.org/2000/svg">
<g clip-path="url(#clip0_533_3260)">
<path d="M21.8105 4.46039L17.4969 0.146576C17.3756 0.0251881 17.211 -0.0429688 17.0394 -0.0429688H7.11765C6.04728 -0.0429688 5.17647 0.827843 5.17647 1.89821V10.4324C2.26876 10.7553 0 13.2274 0 16.2198C0 19.4309 2.61244 22.0433 5.82353 22.0433H20.0588C21.1292 22.0433 22 21.1725 22 20.1021V4.91794C22 4.7463 21.9318 4.58178 21.8105 4.46039ZM17.6863 2.16622L19.0921 3.57211L19.7908 4.27076H17.6863V2.16622ZM1.29412 16.2198C1.29412 13.7223 3.32601 11.6904 5.82353 11.6904C8.32105 11.6904 10.3529 13.7223 10.3529 16.2198C10.3529 18.7173 8.32105 20.7492 5.82353 20.7492C3.32601 20.7492 1.29412 18.7173 1.29412 16.2198ZM20.0588 20.7492H9.47937C10.6425 19.8086 11.4373 18.4302 11.611 16.8668H18.3333C18.6907 16.8668 18.9804 16.5771 18.9804 16.2198C18.9804 15.8624 18.6907 15.5727 18.3333 15.5727H11.6109C11.5054 14.6228 11.1707 13.7412 10.6633 12.9845H18.3333C18.6907 12.9845 18.9804 12.6948 18.9804 12.3374C18.9804 11.9801 18.6907 11.6904 18.3333 11.6904H9.47937C8.63729 11.0094 7.60242 10.5581 6.47059 10.4324V1.89821C6.47059 1.54142 6.76086 1.25115 7.11765 1.25115H16.3922V4.91782C16.3922 5.27516 16.6819 5.56487 17.0392 5.56487H20.7059V20.1021C20.7059 20.4589 20.4156 20.7492 20.0588 20.7492Z" fill="currentColor"/>
<path d="M18.3334 7.80762H8.84316C8.48582 7.80762 8.19611 8.09733 8.19611 8.45468C8.19611 8.81202 8.48582 9.10173 8.84316 9.10173H18.3334C18.6907 9.10173 18.9804 8.81202 18.9804 8.45468C18.9804 8.09733 18.6907 7.80762 18.3334 7.80762Z" fill="currentColor"/>
<path d="M8.39476 14.5972C8.14211 14.3446 7.73239 14.3446 7.47969 14.5972L4.91764 17.1593L4.08103 16.3227C3.82838 16.07 3.41866 16.07 3.16596 16.3227C2.91327 16.5753 2.91327 16.985 3.16596 17.2377L4.46008 18.5318C4.58643 18.6582 4.75203 18.7214 4.91764 18.7214C5.08324 18.7214 5.24885 18.6582 5.37515 18.5318L8.39476 15.5122C8.64746 15.2596 8.64746 14.8499 8.39476 14.5972Z" fill="currentColor"/>
</g>
<defs>
<clipPath id="clip0_533_3260">
<rect width="22" height="22" fill="white"/>
</clipPath>
</defs>
</svg>
