<svg width="22" height="22" viewBox="0 0 22 22" fill="none" xmlns="http://www.w3.org/2000/svg">
<path d="M3.66669 3.66683V18.3335C3.66669 18.8197 3.85984 19.286 4.20366 19.6299C4.54747 19.9737 5.01379 20.1668 5.50002 20.1668H16.5C16.9863 20.1668 17.4526 19.9737 17.7964 19.6299C18.1402 19.286 18.3334 18.8197 18.3334 18.3335V7.647C18.3333 7.40276 18.2845 7.16099 18.1897 6.93589C18.095 6.71078 17.9562 6.50688 17.7815 6.33616L13.7115 2.356C13.369 2.0211 12.909 1.83356 12.43 1.8335H5.50002C5.01379 1.8335 4.54747 2.02665 4.20366 2.37047C3.85984 2.71428 3.66669 3.1806 3.66669 3.66683V3.66683Z" stroke="currentColor" stroke-width="1.5" stroke-linecap="round" stroke-linejoin="round"/>
<path d="M8.25 11.9165H13.75" stroke="currentColor" stroke-width="1.5" stroke-linecap="round" stroke-linejoin="round"/>
<path d="M8.25 15.5835H11" stroke="currentColor" stroke-width="1.5" stroke-linecap="round" stroke-linejoin="round"/>
<path d="M12.8333 1.8335V5.50016C12.8333 5.98639 13.0265 6.45271 13.3703 6.79653C13.7141 7.14034 14.1804 7.3335 14.6666 7.3335H18.3333" stroke="currentColor" stroke-width="1.5" stroke-linecap="round" stroke-linejoin="round"/>
</svg>
