<svg width="22" height="22" viewBox="0 0 22 22" fill="none" xmlns="http://www.w3.org/2000/svg">
<path d="M8.14814 3.37793H11L12.9012 5.27916H17.6543C18.1586 5.27916 18.6421 5.47947 18.9987 5.83602C19.3552 6.19257 19.5556 6.67616 19.5556 7.1804V13.8347C19.5556 14.339 19.3552 14.8225 18.9987 15.1791C18.6421 15.5356 18.1586 15.736 17.6543 15.736H8.14814C7.64391 15.736 7.16032 15.5356 6.80377 15.1791C6.44722 14.8225 6.24691 14.339 6.24691 13.8347V5.27916C6.24691 4.77493 6.44722 4.29134 6.80377 3.93479C7.16032 3.57824 7.64391 3.37793 8.14814 3.37793Z" stroke="currentColor" stroke-width="1.2" stroke-linecap="round" stroke-linejoin="round"/>
<path d="M15.7531 15.7362V17.6375C15.7531 18.1417 15.5528 18.6253 15.1962 18.9818C14.8397 19.3384 14.3561 19.5387 13.8519 19.5387H4.34568C3.84144 19.5387 3.35785 19.3384 3.0013 18.9818C2.64475 18.6253 2.44444 18.1417 2.44444 17.6375V9.0819C2.44444 8.57766 2.64475 8.09407 3.0013 7.73752C3.35785 7.38097 3.84144 7.18066 4.34568 7.18066H6.24691" stroke="currentColor" stroke-width="1.2" stroke-linecap="round" stroke-linejoin="round"/>
</svg>
