<svg width="18" height="18" viewBox="0 0 18 18" fill="none" xmlns="http://www.w3.org/2000/svg">
<g opacity="0.5">
<path fill-rule="evenodd" clip-rule="evenodd" d="M1.5 9C1.5 8.60218 1.65804 8.22064 1.93934 7.93934C2.22064 7.65804 2.60218 7.5 3 7.5C3.39782 7.5 3.77936 7.65804 4.06066 7.93934C4.34196 8.22064 4.5 8.60218 4.5 9C4.5 9.39782 4.34196 9.77936 4.06066 10.0607C3.77936 10.342 3.39782 10.5 3 10.5C2.60218 10.5 2.22064 10.342 1.93934 10.0607C1.65804 9.77936 1.5 9.39782 1.5 9Z" fill="currentColor"/>
<path fill-rule="evenodd" clip-rule="evenodd" d="M7.5 9C7.5 8.60218 7.65804 8.22064 7.93934 7.93934C8.22064 7.65804 8.60218 7.5 9 7.5C9.39782 7.5 9.77936 7.65804 10.0607 7.93934C10.342 8.22064 10.5 8.60218 10.5 9C10.5 9.39782 10.342 9.77936 10.0607 10.0607C9.77936 10.342 9.39782 10.5 9 10.5C8.60218 10.5 8.22064 10.342 7.93934 10.0607C7.65804 9.77936 7.5 9.39782 7.5 9Z" fill="currentColor"/>
<path fill-rule="evenodd" clip-rule="evenodd" d="M13.5 9C13.5 8.60218 13.658 8.22064 13.9393 7.93934C14.2206 7.65804 14.6022 7.5 15 7.5C15.3978 7.5 15.7794 7.65804 16.0607 7.93934C16.342 8.22064 16.5 8.60218 16.5 9C16.5 9.39782 16.342 9.77936 16.0607 10.0607C15.7794 10.342 15.3978 10.5 15 10.5C14.6022 10.5 14.2206 10.342 13.9393 10.0607C13.658 9.77936 13.5 9.39782 13.5 9Z" fill="currentColor"/>
</g>
</svg>
