<svg width="24" height="24" viewBox="0 0 24 24" fill="none" xmlns="http://www.w3.org/2000/svg">
<g opacity="0.8" clip-path="url(#clip0_533_2063)">
<path d="M10.5031 5.8441C8.2376 6.36643 6.41688 8.16314 5.86465 10.4214C5.32216 12.6398 5.95488 14.9041 7.55711 16.4786C8.1461 17.0574 8.4844 17.9209 8.4844 18.8477V20.2801C8.48449 22.4117 10.0425 23.9998 11.9996 23.9998C13.9381 23.9998 15.5148 22.4227 15.5148 20.4842L15.5148 18.8496C15.5148 17.9336 15.8699 17.0527 16.4882 16.4328C17.6745 15.2434 18.3278 13.6691 18.3278 11.9998C18.3278 8.00841 14.6347 4.89164 10.5031 5.8441ZM11.9996 22.5936C10.7971 22.5936 9.89027 21.599 9.89022 20.28V19.7342H14.109V20.4842C14.109 21.6473 13.1627 22.5936 11.9996 22.5936ZM15.4926 15.4397C14.733 16.2013 14.2536 17.2326 14.1371 18.3279H9.86365C9.75138 17.223 9.28404 16.204 8.5428 15.4755C7.27905 14.2338 6.80079 12.5134 7.23063 10.7555C7.65785 9.00844 9.0664 7.6185 10.8191 7.21444C14.0445 6.47077 16.9215 8.87672 16.9215 11.9998C16.9215 13.2942 16.4141 14.5158 15.4926 15.4397Z" fill="currentColor"/>
<path d="M11.2969 0.703125V2.15625C11.2969 2.54456 11.6117 2.85938 12 2.85938C12.3883 2.85938 12.7031 2.54456 12.7031 2.15625V0.703125C12.7031 0.314812 12.3883 0 12 0C11.6117 0 11.2969 0.314812 11.2969 0.703125Z" fill="currentColor"/>
<path d="M2.85938 12C2.85938 11.6117 2.54456 11.2969 2.15625 11.2969H0.703125C0.314812 11.2969 0 11.6117 0 12C0 12.3883 0.314812 12.7031 0.703125 12.7031H2.15625C2.54456 12.7031 2.85938 12.3883 2.85938 12Z" fill="currentColor"/>
<path d="M23.2969 11.2969H21.8438C21.4554 11.2969 21.1406 11.6117 21.1406 12C21.1406 12.3883 21.4554 12.7031 21.8438 12.7031H23.2969C23.6852 12.7031 24 12.3883 24 12C24 11.6117 23.6852 11.2969 23.2969 11.2969Z" fill="currentColor"/>
<path d="M3.1234 16.3131L1.90558 17.0162C1.56926 17.2104 1.45404 17.6404 1.64824 17.9767C1.84301 18.314 2.27337 18.4276 2.60871 18.234L3.82652 17.5309C4.16285 17.3367 4.27807 16.9067 4.08387 16.5704C3.88966 16.2341 3.45968 16.1189 3.1234 16.3131Z" fill="currentColor"/>
<path d="M21.3906 5.7662L20.1728 6.46933C19.8365 6.66348 19.7213 7.09351 19.9155 7.4298C20.1102 7.76715 20.5406 7.88073 20.8759 7.68714L22.0937 6.98401C22.4301 6.78986 22.5453 6.35983 22.3511 6.02354C22.1569 5.68722 21.7268 5.57205 21.3906 5.7662Z" fill="currentColor"/>
<path d="M17.0162 1.90542L16.3131 3.12328C16.1189 3.45956 16.2341 3.88959 16.5704 4.08375C16.9053 4.27711 17.3359 4.16414 17.5309 3.82641L18.234 2.60855C18.4282 2.27227 18.313 1.84224 17.9767 1.64808C17.6403 1.45383 17.2104 1.56909 17.0162 1.90542Z" fill="currentColor"/>
<path d="M6.46935 3.82685C6.66411 4.16421 7.09447 4.27779 7.42982 4.0842C7.76614 3.89004 7.88136 3.46001 7.68716 3.12373L6.98403 1.90587C6.78988 1.56954 6.35985 1.45437 6.02357 1.64853C5.68724 1.84268 5.57202 2.27271 5.76622 2.60899L6.46935 3.82685Z" fill="currentColor"/>
<path d="M22.0937 17.0162L20.8759 16.3131C20.5395 16.1189 20.1096 16.2341 19.9155 16.5705C19.7213 16.9067 19.8365 17.3368 20.1728 17.5309L21.3906 18.2341C21.7254 18.4274 22.1561 18.3144 22.3511 17.9767C22.5453 17.6404 22.4301 17.2104 22.0937 17.0162Z" fill="currentColor"/>
<path d="M3.82652 6.46939L2.60871 5.76626C2.27238 5.57197 1.8424 5.68728 1.64824 6.02361C1.45404 6.35989 1.56926 6.78992 1.90558 6.98408L3.1234 7.6872C3.45823 7.88056 3.88887 7.76759 4.08387 7.42986C4.27807 7.09358 4.16285 6.66354 3.82652 6.46939Z" fill="currentColor"/>
<path d="M12 9.1875C10.8369 9.1875 9.89062 10.1338 9.89062 11.2969C9.89062 11.6852 10.2054 12 10.5938 12C10.9821 12 11.2969 11.6852 11.2969 11.2969C11.2969 10.9092 11.6123 10.5938 12 10.5938C12.3877 10.5938 12.7031 10.9092 12.7031 11.2969C12.7031 11.5868 12.5292 11.8433 12.2599 11.9506C11.6749 12.1837 11.2969 12.7412 11.2969 13.3709V13.4062C11.2969 13.7946 11.6117 14.1094 12 14.1094C12.3883 14.1094 12.7031 13.7946 12.7031 13.4062V13.3709C12.7031 13.3212 12.7342 13.2754 12.7804 13.257C13.5877 12.9354 14.1094 12.166 14.1094 11.2969C14.1094 10.1338 13.1631 9.1875 12 9.1875Z" fill="currentColor"/>
<path d="M12 16.9219C12.3883 16.9219 12.7031 16.6071 12.7031 16.2188C12.7031 15.8304 12.3883 15.5156 12 15.5156C11.6117 15.5156 11.2969 15.8304 11.2969 16.2188C11.2969 16.6071 11.6117 16.9219 12 16.9219Z" fill="currentColor"/>
</g>
<defs>
<clipPath id="clip0_533_2063">
<rect width="24" height="24" fill="white"/>
</clipPath>
</defs>
</svg>
