<svg width="22" height="21" viewBox="0 0 22 21" fill="none" xmlns="http://www.w3.org/2000/svg">
<path d="M18.6975 4.30249C18.4055 4.01051 17.9472 3.96746 17.6058 4.20005C16.32 5.07652 9.87018 9.48387 9.177 10.177C8.17179 11.1823 8.17179 12.8178 9.177 13.8231C9.67961 14.3256 10.3399 14.577 11 14.577C11.6602 14.577 12.3204 14.3256 12.8231 13.8231C13.5162 13.1299 17.9235 6.68012 18.8 5.39424C19.0325 5.05293 18.9895 4.59454 18.6975 4.30249ZM11.6077 12.6077C11.2726 12.9428 10.7274 12.9428 10.3924 12.6077C10.0573 12.2727 10.0573 11.7276 10.3922 11.3925C10.6615 11.1264 12.4927 9.8204 14.7458 8.25432C13.1797 10.5073 11.8737 12.3385 11.6077 12.6077Z" fill="currentColor"/>
<path d="M3.96305 15.9971L2.90215 16.5146C2.12588 15.1292 1.71875 13.5829 1.71875 12C1.71875 10.8402 1.93261 9.72944 2.32289 8.70503L3.53852 9.28811C3.6584 9.3456 3.78495 9.37285 3.9096 9.37285C4.22984 9.37285 4.53728 9.19302 4.68505 8.88494C4.89027 8.45701 4.7098 7.94366 4.28184 7.7384L3.08163 7.16271C4.57338 4.72982 7.15438 3.03362 10.1407 2.7582V4.05074C10.1407 4.52537 10.5254 4.91011 11 4.91011C11.4747 4.91011 11.8594 4.52537 11.8594 4.05074V2.75755C12.8833 2.85075 13.874 3.11148 14.8144 3.53602C15.2469 3.73131 15.756 3.53885 15.9512 3.10637C16.1465 2.67376 15.9542 2.1648 15.5216 1.9695C14.0965 1.32622 12.5752 1 11 1C8.0618 1 5.29946 2.14417 3.2218 4.2218C1.14421 6.29946 0 9.0618 0 12C0 14.1712 0.644445 16.2829 1.86368 18.1065C2.02791 18.3521 2.29943 18.4883 2.57864 18.4883C2.70557 18.4883 2.83413 18.4602 2.95492 18.4013L4.71664 17.5419C5.14323 17.3338 5.32035 16.8193 5.11225 16.3927C4.90415 15.9662 4.38964 15.7891 3.96305 15.9971Z" fill="currentColor"/>
<path d="M21.0304 7.4787C20.8352 7.04614 20.3263 6.85364 19.8936 7.04902C19.461 7.24431 19.2686 7.75327 19.4639 8.18584C20.0063 9.38716 20.2812 10.6705 20.2812 12.0002C20.2812 13.5855 19.8728 15.1343 19.0942 16.5213L17.9866 15.9939C17.5582 15.7898 17.0453 15.9717 16.8412 16.4003C16.6372 16.8288 16.8192 17.3416 17.2477 17.5457L19.0524 18.4051C19.1711 18.4616 19.297 18.4886 19.4214 18.4886C19.7007 18.4886 19.9723 18.3522 20.1363 18.1068C21.3555 16.2831 22 14.1714 22 12.0002C22 10.425 21.6738 8.90376 21.0304 7.4787Z" fill="currentColor"/>
</svg>
