<svg width="20" height="20" viewBox="0 0 20 20" fill="none" xmlns="http://www.w3.org/2000/svg">
<path d="M8.16929 1.6665C8.01126 1.66638 7.85964 1.72896 7.74771 1.8405L1.84163 7.74657C1.78617 7.80198 1.74216 7.86777 1.71214 7.94019C1.68212 8.01262 1.66667 8.09025 1.66667 8.16864C1.66667 8.24704 1.68212 8.32467 1.71214 8.3971C1.74216 8.46952 1.78617 8.53531 1.84163 8.59072C2.41434 9.16343 3.12029 9.29169 3.63434 9.29169C3.84612 9.29169 4.03404 9.27081 4.18319 9.24595L7.92171 12.9845C7.82427 13.3822 7.76064 13.7859 7.7318 14.1935C7.67712 15.0307 7.76958 16.206 8.59087 17.0272C8.70272 17.139 8.85435 17.2017 9.01245 17.2017C9.17054 17.2017 9.32217 17.139 9.43402 17.0272L12.8096 13.6516L16.6068 17.4498C16.8395 17.6825 18.0605 18.5256 18.2931 18.293C18.5258 18.0603 17.6826 16.8373 17.45 16.6057L13.6538 12.8095L17.0274 9.43387C17.1391 9.32202 17.2019 9.17039 17.2019 9.0123C17.2019 8.8542 17.1391 8.70258 17.0274 8.59072C16.2071 7.76944 15.0319 7.67597 14.1937 7.73166C13.786 7.75949 13.3814 7.82412 12.9856 7.92256L9.2461 4.18404C9.27729 4.00241 9.29325 3.81849 9.29383 3.6342C9.29383 3.12115 9.16457 2.41421 8.59087 1.8405C8.47893 1.72896 8.32731 1.66638 8.16929 1.6665ZM8.02412 4.18603V4.18404V4.18603ZM8.02412 4.18404V4.18603C7.98962 4.29095 7.98492 4.4034 8.01055 4.51083C8.03618 4.61827 8.09113 4.71648 8.16929 4.79453L12.3871 9.0113C12.4655 9.08948 12.5642 9.14428 12.672 9.16957C12.7798 9.19486 12.8925 9.18963 12.9976 9.15448H12.9995L13.0164 9.1505C13.4258 9.02878 13.8472 8.9521 14.2732 8.92182C14.7763 8.88801 15.2705 8.93077 15.6752 9.10079L9.09994 15.673C8.93191 15.2674 8.88915 14.7742 8.92296 14.2711C8.9533 13.8448 9.02998 13.423 9.15165 13.0133L9.15662 12.9984V12.9964C9.19189 12.8914 9.19717 12.7786 9.17188 12.6708C9.14658 12.5629 9.09172 12.4643 9.01344 12.3859L4.79467 8.16815C4.71338 8.08629 4.61009 8.02977 4.49733 8.00541C4.38456 7.98106 4.26715 7.98993 4.15932 8.03094L4.04498 8.05679C3.94157 8.07667 3.79641 8.09755 3.63434 8.09755C3.49812 8.09755 3.35991 8.08463 3.22568 8.04983L8.05196 3.22455C8.08496 3.35856 8.10099 3.49619 8.09969 3.6342C8.09869 3.81914 8.07384 4.00407 8.02512 4.18304L8.02412 4.18404Z" fill="currentColor"/>
</svg>
