<svg width="16" height="16" viewBox="0 0 16 16" fill="none" xmlns="http://www.w3.org/2000/svg">
<g opacity="0.7" clip-path="url(#clip0_2_884)">
<path d="M12.7061 0.666504H2.38542C1.4377 0.666504 0.666672 1.43754 0.666672 2.38525V13.6144C0.666672 14.5621 1.4377 15.3332 2.38542 15.3332H13.6146C14.5623 15.3332 15.3333 14.5621 15.3333 13.6144V3.29379L12.7061 0.666504ZM5.16407 1.81234H8.57292V3.98942H9.71875V1.81234H10.8646V4.56234C10.8646 4.87824 10.6076 5.13525 10.2917 5.13525H5.73698C5.42108 5.13525 5.16407 4.87824 5.16407 4.56234V1.81234ZM12.0104 14.1873H4.01823V9.81234C4.01823 9.49643 4.27524 9.23942 4.59115 9.23942H11.4375C11.7534 9.23942 12.0104 9.49643 12.0104 9.81234V14.1873ZM14.1875 13.6144C14.1875 13.9303 13.9305 14.1873 13.6146 14.1873H13.1563V9.81234C13.1563 8.86462 12.3852 8.09359 11.4375 8.09359H4.59115C3.64343 8.09359 2.8724 8.86462 2.8724 9.81234V14.1873H2.38542C2.06952 14.1873 1.81251 13.9303 1.81251 13.6144V2.38525C1.81251 2.06935 2.06952 1.81234 2.38542 1.81234H4.01823V4.56234C4.01823 5.51006 4.78927 6.28109 5.73698 6.28109H10.2917C11.2394 6.28109 12.0104 5.51006 12.0104 4.56234V1.81234H12.2315L14.1875 3.76839V13.6144Z" fill="currentColor"/>
</g>
<defs>
<clipPath id="clip0_2_884">
<rect width="16" height="16" fill="white"/>
</clipPath>
</defs>
</svg>
