<svg width="22" height="22" viewBox="0 0 22 22" fill="none" xmlns="http://www.w3.org/2000/svg">
<path d="M9.05757 11.567C9.45794 11.567 9.84191 11.408 10.125 11.1249C10.4081 10.8418 10.5672 10.4578 10.5672 10.0574C10.5672 9.65708 10.4081 9.27311 10.125 8.99C9.84191 8.7069 9.45794 8.54785 9.05757 8.54785C8.6572 8.54785 8.27323 8.7069 7.99012 8.99C7.70702 9.27311 7.54797 9.65708 7.54797 10.0574C7.54797 10.4578 7.70702 10.8418 7.99012 11.1249C8.27323 11.408 8.6572 11.567 9.05757 11.567Z" fill="currentColor"/>
<path d="M9.05757 1.00008C7.86812 1.00008 6.69031 1.23436 5.59139 1.68955C4.49248 2.14473 3.49398 2.81191 2.6529 3.65298C1.81183 4.49406 1.14465 5.49256 0.689467 6.59147C0.234281 7.69039 0 8.8682 0 10.0577C0 11.2471 0.234281 12.4249 0.689467 13.5238C1.14465 14.6228 1.81183 15.6213 2.6529 16.4623C3.49398 17.3034 4.49248 17.9706 5.59139 18.4258C6.69031 18.8809 7.86812 19.1152 9.05757 19.1152V17.6056C7.56472 17.6056 6.1054 17.163 4.86414 16.3336C3.62288 15.5042 2.65544 14.3254 2.08415 12.9461C1.51286 11.5669 1.36339 10.0493 1.65463 8.58512C1.94587 7.12095 2.66474 5.77603 3.72035 4.72043C4.77595 3.66482 6.12087 2.94595 7.58504 2.65471C9.0492 2.36347 10.5668 2.51294 11.9461 3.08423C13.3253 3.65552 14.5041 4.62296 15.3335 5.86422C16.1629 7.10548 16.6056 8.5648 16.6056 10.0577C16.6206 10.3093 16.6206 10.5609 16.6056 10.8125H18.1151C18.1151 10.5639 18.1534 10.3143 18.1534 10.0577C18.1534 8.86497 17.9179 7.68403 17.4603 6.58261C17.0027 5.4812 16.3321 4.481 15.487 3.63942C14.6419 2.79785 13.6388 2.13147 12.5355 1.67854C11.4322 1.22561 10.2502 0.995045 9.05757 1.00008Z" fill="currentColor"/>
<path d="M11.322 17.6059H18.244L16.2885 19.5604L17.3603 20.6251L21.1343 16.8511L17.3603 13.0771L16.2885 14.149L18.244 16.0963H11.322V17.6059Z" fill="currentColor"/>
<path d="M9.0576 14.5864C8.46287 14.5864 7.87396 14.4692 7.3245 14.2416C6.77505 14.0141 6.2758 13.6805 5.85526 13.2599C5.43472 12.8394 5.10113 12.3401 4.87354 11.7907C4.64595 11.2412 4.52881 10.6523 4.52881 10.0576C4.52881 9.46287 4.64595 8.87396 4.87354 8.3245C5.10113 7.77505 5.43472 7.2758 5.85526 6.85526C6.2758 6.43472 6.77505 6.10113 7.3245 5.87354C7.87396 5.64595 8.46287 5.52881 9.0576 5.52881C10.2587 5.52881 11.4106 6.00595 12.2599 6.85526C13.1092 7.70457 13.5864 8.85649 13.5864 10.0576C13.5864 11.2587 13.1092 12.4106 12.2599 13.2599C11.4106 14.1092 10.2587 14.5864 9.0576 14.5864ZM9.0576 7.0384C8.25686 7.0384 7.48891 7.3565 6.9227 7.9227C6.3565 8.48891 6.0384 9.25686 6.0384 10.0576C6.0384 10.8583 6.3565 11.6263 6.9227 12.1925C7.48891 12.7587 8.25686 13.0768 9.0576 13.0768C9.85833 13.0768 10.6263 12.7587 11.1925 12.1925C11.7587 11.6263 12.0768 10.8583 12.0768 10.0576C12.0768 9.25686 11.7587 8.48891 11.1925 7.9227C10.6263 7.3565 9.85833 7.0384 9.0576 7.0384Z" fill="currentColor"/>
</svg>
