<svg width="22" height="22" viewBox="0 0 22 22" fill="none" xmlns="http://www.w3.org/2000/svg">
<g clip-path="url(#clip0_533_3196)">
<path d="M13.5781 9.06641C13.5781 7.64474 12.4217 6.48828 11 6.48828C9.57834 6.48828 8.42188 7.64474 8.42188 9.06641C8.42188 10.4881 9.57834 11.6445 11 11.6445C12.4217 11.6445 13.5781 10.4881 13.5781 9.06641ZM11 10.3555C10.2892 10.3555 9.71094 9.77724 9.71094 9.06641C9.71094 8.35558 10.2892 7.77734 11 7.77734C11.7108 7.77734 12.2891 8.35558 12.2891 9.06641C12.2891 9.77724 11.7108 10.3555 11 10.3555Z" fill="currentColor"/>
<path d="M19.4219 16.8438C18.9445 16.8438 18.4972 16.9747 18.1133 17.2018L16.446 15.5344C17.4717 14.3044 18.0898 12.7231 18.0898 11C18.0898 9.27689 17.4717 7.6956 16.4458 6.46562L18.1133 4.79823C18.4972 5.02533 18.9445 5.15625 19.4219 5.15625C20.8435 5.15625 22 3.99979 22 2.57812C22 1.15646 20.8435 0 19.4219 0C18.0002 0 16.8438 1.15646 16.8438 2.57812C16.8438 3.05548 16.9747 3.50279 17.2018 3.88666L15.5344 5.55421C14.3044 4.52834 12.7231 3.91016 11 3.91016C9.27689 3.91016 7.6956 4.52834 6.46562 5.55421L4.79823 3.88666C5.02533 3.50279 5.15625 3.05548 5.15625 2.57812C5.15625 1.15646 3.99979 0 2.57812 0C1.15646 0 0 1.15646 0 2.57812C0 3.99979 1.15646 5.15625 2.57812 5.15625C3.05548 5.15625 3.50279 5.02533 3.88666 4.79823L5.55421 6.46562C4.52834 7.6956 3.91016 9.27689 3.91016 11C3.91016 12.7231 4.52834 14.3044 5.55421 15.5344L3.88666 17.2018C3.50279 16.9747 3.05548 16.8438 2.57812 16.8438C1.15646 16.8438 0 18.0002 0 19.4219C0 20.8435 1.15646 22 2.57812 22C3.99979 22 5.15625 20.8435 5.15625 19.4219C5.15625 18.9445 5.02533 18.4972 4.79823 18.1133L6.46562 16.4458C7.69846 17.4742 9.28125 18.0898 11 18.0898C12.6142 18.0898 14.2206 17.5415 15.5344 16.4458L17.2019 18.1133C16.9747 18.4972 16.8438 18.9445 16.8438 19.4219C16.8438 20.8435 18.0002 22 19.4219 22C20.8435 22 22 20.8435 22 19.4219C22 18.0002 20.8435 16.8438 19.4219 16.8438ZM19.4219 1.28906C20.1327 1.28906 20.7109 1.86729 20.7109 2.57812C20.7109 3.28896 20.1327 3.86719 19.4219 3.86719C18.711 3.86719 18.1328 3.28896 18.1328 2.57812C18.1328 1.86729 18.711 1.28906 19.4219 1.28906ZM1.28906 2.57812C1.28906 1.86729 1.86729 1.28906 2.57812 1.28906C3.28896 1.28906 3.86719 1.86729 3.86719 2.57812C3.86719 3.28896 3.28896 3.86719 2.57812 3.86719C1.86729 3.86719 1.28906 3.28896 1.28906 2.57812ZM11 5.19922C14.1985 5.19922 16.8008 7.80151 16.8008 11C16.8008 12.7164 16.0512 14.2608 14.8625 15.3237C14.7641 13.2784 13.0694 11.6445 11 11.6445C8.93062 11.6445 7.23587 13.2784 7.13751 15.3237C5.94882 14.2608 5.19922 12.7164 5.19922 11C5.19922 7.80151 7.80151 5.19922 11 5.19922ZM2.57812 20.7109C1.86729 20.7109 1.28906 20.1327 1.28906 19.4219C1.28906 18.711 1.86729 18.1328 2.57812 18.1328C3.28896 18.1328 3.86719 18.711 3.86719 19.4219C3.86719 20.1327 3.28896 20.7109 2.57812 20.7109ZM8.42188 16.1954V15.5117C8.42188 14.0901 9.57834 12.9336 11 12.9336C12.4217 12.9336 13.5781 14.0901 13.5781 15.5117V16.1954C12.801 16.5826 11.9255 16.8008 11 16.8008C10.0745 16.8008 9.19901 16.5826 8.42188 16.1954ZM19.4219 20.7109C18.711 20.7109 18.1328 20.1327 18.1328 19.4219C18.1328 18.711 18.711 18.1328 19.4219 18.1328C20.1327 18.1328 20.7109 18.711 20.7109 19.4219C20.7109 20.1327 20.1327 20.7109 19.4219 20.7109Z" fill="currentColor"/>
</g>
<defs>
<clipPath id="clip0_533_3196">
<rect width="22" height="22" fill="white"/>
</clipPath>
</defs>
</svg>
