<svg width="16" height="16" viewBox="0 0 16 16" fill="none" xmlns="http://www.w3.org/2000/svg">
<path d="M3.83446 11.6299L4.88883 10.5733L4.88889 10.5732C4.99171 10.4705 5.13111 10.4129 5.27643 10.413C5.42174 10.413 5.56108 10.4708 5.66377 10.5737C5.76647 10.6765 5.82411 10.8159 5.82403 10.9612C5.82394 11.1065 5.76613 11.2459 5.66332 11.3485M3.83446 11.6299L5.62798 11.3132M3.83446 11.6299V3.00321C3.83446 2.85805 3.77679 2.71882 3.67414 2.61618C3.57149 2.51353 3.43227 2.45586 3.2871 2.45586C3.14193 2.45586 3.00271 2.51353 2.90006 2.61618C2.79741 2.71882 2.73975 2.85805 2.73975 3.00321V11.6292L1.68535 10.5741L1.68533 10.5741C1.63443 10.5232 1.57399 10.4828 1.50748 10.4552C1.44097 10.4277 1.36968 10.4135 1.29769 10.4135C1.22569 10.4135 1.1544 10.4277 1.08789 10.4552C1.02138 10.4828 0.960944 10.5232 0.910038 10.5741C0.859131 10.625 0.81875 10.6854 0.791199 10.7519C0.763649 10.8184 0.749469 10.8897 0.749469 10.9617C0.749469 11.0337 0.763649 11.105 0.791199 11.1715C0.81875 11.238 0.859131 11.2984 0.910038 11.3494L0.910053 11.3494L2.89947 13.3371L2.89941 13.3372L2.90159 13.3391L2.9082 13.345L3.83446 11.6299ZM5.66332 11.3485L5.62798 11.3132M5.66332 11.3485L5.66334 11.3485L5.62798 11.3132M5.66332 11.3485L3.6741 13.3378L3.63856 13.3026M5.62798 11.3132L3.63856 13.3026M3.63856 13.3026L3.67392 13.3379L3.67397 13.3379L3.63856 13.3026ZM7.37625 3.61088C7.2736 3.71353 7.21593 3.85275 7.21593 3.99792C7.21593 4.14309 7.2736 4.28231 7.37625 4.38496C7.4789 4.48761 7.61812 4.54528 7.76329 4.54528H14.7262C14.8714 4.54528 15.0106 4.48761 15.1133 4.38496C15.2159 4.28231 15.2736 4.14309 15.2736 3.99792C15.2736 3.85275 15.2159 3.71353 15.1133 3.61088C15.0106 3.50823 14.8714 3.45057 14.7262 3.45057H7.76329C7.61812 3.45057 7.4789 3.50823 7.37625 3.61088ZM7.76329 6.43469C7.61812 6.43469 7.4789 6.49236 7.37625 6.59501C7.2736 6.69766 7.21593 6.83688 7.21593 6.98205C7.21593 7.12721 7.2736 7.26643 7.37625 7.36908C7.4789 7.47173 7.61812 7.5294 7.76329 7.5294H12.7368C12.882 7.5294 13.0212 7.47173 13.1239 7.36908C13.2265 7.26643 13.2842 7.12721 13.2842 6.98205C13.2842 6.83688 13.2265 6.69766 13.1239 6.59501C13.0212 6.49236 12.882 6.43469 12.7368 6.43469H7.76329ZM7.76329 9.41882C7.61812 9.41882 7.4789 9.47648 7.37625 9.57913C7.2736 9.68178 7.21593 9.821 7.21593 9.96617C7.21593 10.1113 7.2736 10.2506 7.37625 10.3532C7.4789 10.4559 7.61812 10.5135 7.76329 10.5135H10.7474C10.8926 10.5135 11.0318 10.4559 11.1344 10.3532C11.2371 10.2506 11.2948 10.1113 11.2948 9.96617C11.2948 9.821 11.2371 9.68178 11.1344 9.57913C11.0318 9.47648 10.8926 9.41882 10.7474 9.41882H7.76329ZM7.76329 12.4029C7.69141 12.4029 7.62023 12.4171 7.55382 12.4446C7.48741 12.4721 7.42708 12.5124 7.37625 12.5633C7.32542 12.6141 7.2851 12.6744 7.2576 12.7408C7.23009 12.8072 7.21593 12.8784 7.21593 12.9503C7.21593 13.0222 7.23009 13.0933 7.2576 13.1598C7.2851 13.2262 7.32542 13.2865 7.37625 13.3373C7.42708 13.3882 7.48741 13.4285 7.55382 13.456C7.62023 13.4835 7.69141 13.4976 7.76329 13.4976H8.75799C8.82987 13.4976 8.90105 13.4835 8.96746 13.456C9.03387 13.4285 9.09421 13.3882 9.14503 13.3373C9.19586 13.2865 9.23618 13.2262 9.26368 13.1598C9.29119 13.0933 9.30535 13.0222 9.30535 12.9503C9.30535 12.8784 9.29119 12.8072 9.26368 12.7408C9.23618 12.6744 9.19586 12.6141 9.14503 12.5633C9.09421 12.5124 9.03387 12.4721 8.96746 12.4446C8.90105 12.4171 8.82987 12.4029 8.75799 12.4029H7.76329Z" fill="currentColor" stroke="currentColor" stroke-width="0.1"/>
</svg>
