<svg width="22" height="22" viewBox="0 0 22 22" fill="none" xmlns="http://www.w3.org/2000/svg">
<path d="M9.83527 18.6354C11.3235 18.6354 12.6823 18.3119 13.9764 17.6001L17.4706 21.0942C18.4412 22.0648 20.0588 22.0648 21.0941 21.0942C22.1294 20.1236 22.1294 18.4413 21.0941 17.4707L17.6 13.9766C18.247 12.7472 18.6353 11.3236 18.6353 9.83539C18.6353 5.04716 14.6882 1.1001 9.83527 1.1001C5.04703 1.1001 1.09998 5.04716 1.09998 9.83539C1.09998 14.6883 5.04703 18.6354 9.83527 18.6354ZM20.1235 18.3766C20.6412 18.8942 20.6412 19.6707 20.1235 20.1883C19.6059 20.706 18.8294 20.706 18.3117 20.1883L15.0117 16.8883C15.7882 16.306 16.2412 15.853 16.8235 15.0766L20.1235 18.3766ZM9.83527 2.39422C13.9764 2.39422 17.2764 5.75892 17.2764 9.83539C17.2764 13.9766 13.9117 17.2766 9.83527 17.2766C5.7588 17.3413 2.39409 13.9766 2.39409 9.83539C2.39409 5.75892 5.7588 2.39422 9.83527 2.39422Z" fill="currentColor"/>
<path d="M5.95292 14.0413H13.7176C14.1059 14.0413 14.3647 13.7825 14.3647 13.3942V12.4236C14.3647 11.1295 13.3294 9.83539 12.4882 9.12363C12.6823 8.73539 12.747 8.34716 12.747 7.89422C12.747 6.27657 11.4529 4.98245 9.83527 4.98245C8.21762 4.98245 6.9235 6.27657 6.9235 7.89422C6.9235 8.34716 7.05292 8.73539 7.18233 9.12363C6.21174 9.83539 5.30586 11.0001 5.30586 12.4236V13.3942C5.30586 13.7825 5.62939 14.0413 5.95292 14.0413ZM9.83527 6.27657C10.7412 6.27657 11.4529 6.98833 11.4529 7.89422C11.4529 8.8001 10.7412 9.51186 9.83527 9.51186C8.92939 9.51186 8.21762 8.8001 8.21762 7.89422C8.21762 6.98833 8.99409 6.27657 9.83527 6.27657ZM6.59998 12.4236C6.59998 11.5177 7.24703 10.6766 8.0235 10.1589C8.54115 10.5472 9.1235 10.806 9.83527 10.806C10.547 10.806 11.1294 10.5472 11.647 10.1589C12.2294 10.6119 13.0706 11.6472 13.0706 12.4236V12.7472H6.59998V12.4236Z" fill="currentColor"/>
</svg>
