<svg width="22" height="22" viewBox="0 0 22 22" fill="none" xmlns="http://www.w3.org/2000/svg">
<path fill-rule="evenodd" clip-rule="evenodd" d="M10.3489 2C7.7686 2 5.67444 4.09483 5.67444 6.67447C5.67444 9.25411 7.7686 11.3489 10.3489 11.3489C12.9285 11.3489 15.0234 9.25411 15.0234 6.67447C15.0234 4.09483 12.9285 2 10.3489 2ZM10.3489 3.33556C12.1913 3.33556 13.6878 4.83139 13.6878 6.67447C13.6878 8.51755 12.1913 10.0134 10.3489 10.0134C8.50583 10.0134 7.01 8.51755 7.01 6.67447C7.01 4.83139 8.50583 3.33556 10.3489 3.33556Z" fill="currentColor"/>
<path fill-rule="evenodd" clip-rule="evenodd" d="M2.33556 19.3624H10.5974C10.966 19.3624 11.2651 19.6615 11.2651 20.0302C11.2651 20.3988 10.966 20.6979 10.5974 20.6979H1.66778C1.2985 20.6979 1 20.3988 1 20.0302C1 20.0302 1 19.4792 1 18.6946C1 15.3751 3.69049 12.6846 7.01003 12.6846H10.6007C10.9693 12.6846 11.2685 12.9837 11.2685 13.3524C11.2685 13.721 10.9693 14.0201 10.6007 14.0201H7.01003C4.42839 14.0201 2.33556 16.113 2.33556 18.6946V19.3624Z" fill="currentColor"/>
<path fill-rule="evenodd" clip-rule="evenodd" d="M14.5486 14.092L15.7006 11.8669C15.8154 11.6452 16.0445 11.5063 16.2935 11.5063C16.5433 11.5063 16.7723 11.6452 16.8865 11.8669L18.0391 14.092L20.5112 14.5007C20.7577 14.5414 20.9607 14.7157 21.0375 14.9528C21.1149 15.1905 21.0535 15.4509 20.8779 15.6286L19.1176 17.4122L19.4935 19.8897C19.5309 20.1361 19.4274 20.3832 19.2258 20.5301C19.0241 20.6763 18.757 20.6984 18.5339 20.5868L16.2935 19.4636L14.0538 20.5868C13.8308 20.6984 13.5637 20.6763 13.362 20.5301C13.1603 20.3832 13.0568 20.1361 13.0942 19.8897L13.4695 17.4122L11.7099 15.6286C11.5343 15.4509 11.4728 15.1905 11.5496 14.9528C11.6271 14.7157 11.8301 14.5414 12.0765 14.5007L14.5486 14.092ZM16.2935 13.6259L15.5803 15.0035C15.4835 15.1905 15.3039 15.3207 15.0962 15.3554L13.5663 15.6079L14.6555 16.7124C14.8037 16.862 14.8718 17.073 14.8404 17.2813L14.6081 18.8145L15.9944 18.1201C16.1827 18.0252 16.4051 18.0252 16.5934 18.1201L17.9797 18.8145L17.7473 17.2813C17.7159 17.073 17.784 16.862 17.9323 16.7124L19.0214 15.6079L17.4915 15.3554C17.2832 15.3207 17.1042 15.1905 17.0074 15.0035L16.2935 13.6259Z" fill="currentColor"/>
</svg>
